<svg version="1.1" id="Layer_1" xmlns="http://www.w3.org/2000/svg" xmlns:xlink="http://www.w3.org/1999/xlink" x="0px" y="0px"
	 width="100%" viewBox="0 0 1080 1080" enable-background="new 0 0 1080 1080" xml:space="preserve">
<path fill="#000000" opacity="1.000000" stroke="none" 
	d="
M632.000000,1081.000000 
	C421.357574,1081.000000 211.215164,1081.000000 1.036378,1081.000000 
	C1.036378,721.065796 1.036378,361.131592 1.036378,1.098691 
	C360.892639,1.098691 720.785278,1.098691 1080.838989,1.098691 
	C1080.838989,360.999939 1080.838989,720.999939 1080.838989,1081.000000 
	C931.464417,1081.000000 781.982239,1081.000000 632.000000,1081.000000 
M695.452759,543.139282 
	C695.365051,543.442139 695.277283,543.744995 694.862976,544.656372 
	C693.961121,546.416748 693.059265,548.177124 691.995728,550.653748 
	C689.521240,555.374146 686.954346,560.048889 684.591614,564.824524 
	C679.655273,574.801819 674.826660,584.832458 669.639954,594.982666 
	C669.639954,594.982666 669.437012,595.260864 669.266907,595.252686 
	C669.266907,595.252686 669.258118,595.422791 668.760132,595.907776 
	C665.429199,603.252563 662.098267,610.597290 658.723389,617.425232 
	C658.551086,617.439819 658.378845,617.454346 657.693420,617.905273 
	C654.713318,624.580017 651.733215,631.254700 648.744385,637.414551 
	C648.572815,637.417358 648.401184,637.420227 647.721680,637.882385 
	C646.203613,641.243469 644.685608,644.604492 642.882263,648.650879 
	C642.816711,649.085754 642.751099,649.520569 642.859192,649.877747 
	C642.859192,649.877747 642.781311,649.704102 642.039551,649.728638 
	C640.310120,652.814453 638.580627,655.900269 636.105835,658.548950 
	C635.075684,642.637085 633.887817,626.733276 633.067566,610.810608 
	C632.463257,599.079224 632.395447,587.321045 631.970642,575.579041 
	C631.822571,571.485657 631.322388,567.405029 630.981873,563.318665 
	C629.661194,547.466919 628.193970,531.625488 627.065308,515.760071 
	C626.166382,503.124023 625.786560,490.451874 624.982605,477.808075 
	C624.106812,464.033234 622.831421,450.282532 622.052673,436.503113 
	C621.178467,421.033417 620.689026,405.542236 619.981628,390.062714 
	C619.733582,384.634796 619.361023,379.212097 619.000916,373.789948 
	C618.017334,358.978149 617.030151,344.166534 616.004822,329.357574 
	C615.381226,320.350433 614.600830,311.353607 614.038330,302.342926 
	C612.971069,285.245331 611.839172,268.148712 611.074036,251.036484 
	C610.669434,241.988831 610.992249,241.975220 602.015198,241.983826 
	C601.349548,241.984451 600.683899,241.953354 600.018188,241.949707 
	C596.696899,241.931519 593.375610,241.917557 589.701538,241.152283 
	C589.163635,237.110184 588.672485,233.061142 588.073425,229.028137 
	C587.582825,225.725357 588.055115,220.964966 586.117920,219.533203 
	C583.833191,217.844604 579.413879,219.051529 575.920288,218.989777 
	C559.480652,218.699219 543.041870,218.337677 526.601074,218.132767 
	C514.613708,217.983353 502.623688,218.007629 490.634827,218.006912 
	C342.928528,217.998245 195.222214,218.039276 47.516171,217.845551 
	C41.841087,217.838120 39.438232,219.553345 39.046078,225.760651 
	C38.977306,227.253387 39.130981,228.796631 38.805325,230.231049 
	C35.590691,244.390320 32.176666,258.505219 29.060295,272.685669 
	C26.224987,285.587219 23.726934,298.562561 21.002565,311.489014 
	C19.822678,317.087250 18.350891,322.624237 17.188587,328.225800 
	C16.017714,333.868622 16.899775,335.002960 22.249050,335.009583 
	C29.232233,335.018250 36.215553,334.914703 43.861439,335.291748 
	C42.893223,340.190216 42.075367,345.124390 40.922943,349.979126 
	C39.004250,358.061890 38.912773,358.031342 46.729992,357.030426 
	C47.549046,356.925537 48.392078,357.004059 49.223984,357.003967 
	C86.495285,356.999878 123.766617,356.979034 161.037781,357.049896 
	C162.725952,357.053101 164.412552,357.885986 165.906754,359.065613 
	C165.595901,359.984344 165.182571,360.882111 164.989563,361.824951 
	C161.971573,376.567841 159.012131,391.322784 155.977753,406.062286 
	C152.681351,422.074463 149.373901,438.084778 145.959412,454.072021 
	C144.834320,459.339905 143.168076,464.493622 142.081070,469.767944 
	C138.054596,489.305176 134.170593,508.871674 130.224716,528.425537 
	C128.476974,537.086487 126.780151,545.758484 124.935883,554.398926 
	C121.087334,572.429626 117.077408,590.426025 113.282883,608.467896 
	C110.056572,623.808044 107.122215,639.209473 103.908096,654.552307 
	C100.159042,672.448853 96.292305,690.321228 92.378708,708.182617 
	C91.085373,714.085449 89.291901,719.880981 88.065804,725.795837 
	C83.983719,745.488037 80.041222,765.209229 76.074867,784.925293 
	C74.397568,793.262939 72.793983,801.615417 70.806747,810.684082 
	C69.173302,819.099915 67.539856,827.515808 65.279083,836.388794 
	C64.967773,837.648621 64.635925,838.903809 64.348602,840.169067 
	C62.903675,846.532227 61.304737,852.867554 60.124733,859.279785 
	C59.723049,861.462524 58.924782,864.823914 62.810459,864.987427 
	C68.637558,865.232788 74.483719,865.009949 80.321724,865.019409 
	C82.500000,865.023010 84.678131,865.119934 87.009232,865.682861 
	C85.806503,870.500610 84.662346,875.333923 83.386696,880.132324 
	C81.662285,886.618774 81.896614,886.997009 88.445732,886.998169 
	C130.271942,887.005554 172.098572,886.921692 213.923752,887.130737 
	C218.577362,887.153992 220.293304,885.508850 221.061966,881.283081 
	C222.529755,873.213745 224.388168,865.216309 226.003967,857.172852 
	C228.705078,843.726624 231.265594,830.251648 234.030121,816.818604 
	C236.597733,804.342407 239.416489,791.918091 242.011139,779.447266 
	C244.745575,766.304688 247.273453,753.119019 250.039444,739.983276 
	C251.164429,734.640686 252.842209,729.414917 253.983002,724.075012 
	C256.371338,712.895691 258.516052,701.664490 260.865540,690.476562 
	C262.488098,682.750000 264.403931,675.084351 265.981995,667.349304 
	C269.534851,649.934021 272.888794,632.477966 276.473358,615.069336 
	C277.767426,608.784607 279.678864,602.627075 280.974701,596.342590 
	C283.350677,584.819763 285.342987,573.217590 287.744720,561.700500 
	C290.707886,547.490967 294.019867,533.354370 297.004974,519.149231 
	C299.590485,506.845673 301.788513,494.460114 304.417572,482.166382 
	C307.116943,469.543793 310.261078,457.016479 312.971954,444.396179 
	C315.782318,431.312744 318.290497,418.164642 320.959839,405.050720 
	C323.959656,390.313110 326.959961,375.575348 330.077423,360.862488 
	C330.300262,359.810852 331.320404,358.403900 332.253571,358.130493 
	C334.567413,357.452606 337.042999,357.063568 339.458282,357.040283 
	C350.622009,356.932770 361.787842,356.937103 372.951599,357.043457 
	C374.656830,357.059692 376.355011,357.820404 377.909332,358.988525 
	C375.281982,370.613373 372.515350,382.208923 370.063873,393.870728 
	C367.240570,407.300995 364.799652,420.811432 362.001373,434.247223 
	C359.074829,448.298798 355.816132,462.281250 352.900696,476.334991 
	C350.675842,487.059570 348.905792,497.878571 346.673065,508.601379 
	C343.206970,525.247681 339.510925,541.846130 335.928162,558.468201 
	C332.070435,576.366150 328.234253,594.268799 324.382172,612.167908 
	C322.250885,622.071350 320.114105,631.973572 317.962952,641.872681 
	C317.303375,644.907776 316.587738,647.930786 315.245361,651.432617 
	C311.571075,669.267822 307.896790,687.103088 304.048492,705.784485 
	C304.022797,706.616882 304.118591,707.474182 303.953674,708.278015 
	C300.241455,726.371399 296.573853,744.474487 292.744507,762.543213 
	C288.918243,780.597473 284.895508,798.609924 281.019348,816.653687 
	C279.576599,823.369751 278.305298,830.122559 276.277954,837.346558 
	C274.539795,844.849121 272.801636,852.351624 271.016693,860.661560 
	C271.299896,864.878479 274.467102,864.932312 277.466522,864.990234 
	C284.272888,865.121643 291.081665,865.129089 298.025055,865.899475 
	C296.997284,871.302368 296.542603,876.903442 294.764465,882.046936 
	C293.281769,886.335754 294.609589,887.019714 298.278412,887.017456 
	C336.757935,886.993958 375.237610,886.959229 413.716797,887.077393 
	C417.210602,887.088074 418.451508,885.302002 418.963806,882.542297 
	C420.088379,876.484924 420.793701,870.343384 422.078033,864.323181 
	C425.916168,846.332581 429.933716,828.380066 433.918274,810.420898 
	C435.214020,804.580811 436.794006,798.799438 437.945587,792.932617 
	C440.224304,781.323914 442.099426,769.633606 444.504578,758.052551 
	C447.123474,745.442261 450.276215,732.943604 452.972321,720.348328 
	C455.775330,707.253601 458.255829,694.090088 460.988373,680.979797 
	C462.173828,675.292114 463.824005,669.698853 464.935059,663.998718 
	C467.193756,652.410950 469.035522,640.739929 471.408783,629.177063 
	C474.066101,616.230164 477.263550,603.394653 479.963226,590.455811 
	C482.603638,577.801025 484.814301,565.057007 487.393188,552.388733 
	C490.489105,537.180786 493.718292,521.999146 497.023407,506.835266 
	C497.735840,503.566681 499.018799,500.422485 499.996857,498.099274 
	C500.723236,508.042419 501.449646,517.985535 502.030334,528.818909 
	C502.353333,532.074585 502.829010,535.323547 502.973907,538.587158 
	C503.749603,556.059143 504.442780,573.534790 505.042725,591.909485 
	C505.752747,602.577698 506.462738,613.245972 507.032928,624.814392 
	C507.680115,636.531311 508.340912,648.247559 508.969269,659.965515 
	C509.332611,666.741638 509.593964,673.523499 509.988037,680.297791 
	C510.957520,696.962463 512.048218,713.620361 512.955139,730.288330 
	C513.727966,744.491577 514.257996,758.707825 514.997986,772.912964 
	C515.582825,784.139465 516.441895,795.352234 516.967346,806.581055 
	C517.772461,823.787048 518.442139,840.999756 519.067566,858.213379 
	C519.256470,863.411377 520.508728,864.884216 525.896912,864.992920 
	C530.894775,865.093872 535.895508,865.047729 541.030151,865.936462 
	C541.351562,871.514709 541.899780,877.092590 541.907410,882.671265 
	C541.911865,885.911072 542.882996,887.057861 546.168335,887.051575 
	C585.823914,886.975769 625.479797,887.030823 665.135193,886.905457 
	C666.757263,886.900391 669.205505,885.882202 669.868225,884.607605 
	C678.307556,868.376831 686.576172,852.055298 694.711914,835.669373 
	C701.365051,822.269409 707.627014,808.674377 714.340332,795.305420 
	C724.084656,775.900391 734.218872,756.690918 743.928284,737.268799 
	C753.914429,717.292847 763.510376,697.122192 773.433777,677.114380 
	C778.790771,666.313477 784.479614,655.677307 790.010315,644.962402 
	C796.339844,632.699890 802.743774,620.474792 808.957153,608.153625 
	C813.738953,598.671204 818.189026,589.021851 822.941284,579.524109 
	C831.028931,563.360413 839.262451,547.269714 847.386292,531.124023 
	C851.401794,523.143555 855.309204,515.108704 859.866943,505.880951 
	C860.017883,508.807251 860.094238,510.286285 859.964478,512.564209 
	C859.639648,513.311584 859.175598,514.029541 859.010498,514.810669 
	C855.605408,530.918152 852.218933,547.029480 848.860779,563.146790 
	C845.194153,580.745239 841.587708,598.356140 837.903809,615.950928 
	C834.257568,633.365540 830.552917,650.768005 826.863770,668.173645 
	C823.541382,683.848389 820.146973,699.508118 816.890625,715.196533 
	C813.168762,733.127930 809.713074,751.115601 805.871887,769.020874 
	C800.840149,792.475464 795.536987,815.871826 790.366760,839.296753 
	C788.887329,845.999451 787.392761,852.700256 786.049805,859.430786 
	C785.533142,862.020081 785.827393,864.784546 789.219604,864.879578 
	C797.070312,865.099670 804.931030,864.960693 812.734802,865.767395 
	C811.806274,870.824402 811.020325,875.912964 809.912598,880.930359 
	C808.575317,886.987427 808.471619,886.996643 814.754028,886.997742 
	C852.580200,887.004272 890.406494,886.949646 928.232239,887.074402 
	C932.632568,887.088928 934.324341,886.562195 935.321167,881.220398 
	C940.031189,855.981873 945.760742,830.934387 951.071228,805.807007 
	C954.770813,788.302063 958.270996,770.754456 962.061401,753.269409 
	C965.893372,735.592957 970.043457,717.985535 973.919006,700.318237 
	C976.407166,688.975464 978.632690,677.575256 981.008606,666.207642 
	C983.907349,652.339233 986.794434,638.468140 989.779663,624.618286 
	C991.068481,618.638855 992.747192,612.741821 993.974854,606.751282 
	C996.636169,593.765137 998.997009,580.716919 1001.713562,567.742798 
	C1004.325012,555.270874 1007.337952,542.883179 1009.973755,530.416077 
	C1012.342773,519.211243 1014.343201,507.928619 1016.695557,496.720093 
	C1017.917542,490.897858 1019.781311,485.208282 1020.953369,479.378021 
	C1024.849854,459.996429 1028.468262,440.558960 1032.376953,421.179901 
	C1035.798096,404.218079 1039.377441,387.286804 1043.050293,370.377472 
	C1046.886719,352.714539 1050.897583,335.089325 1054.875732,317.457397 
	C1056.183350,311.661469 1057.805298,305.931854 1058.970703,300.109344 
	C1061.572632,287.110352 1063.943237,274.065277 1066.478882,261.052765 
	C1067.556396,255.522949 1069.000244,250.054901 1069.799927,244.490128 
	C1069.932007,243.570435 1067.614136,241.365875 1066.401855,241.345520 
	C1060.818726,241.251846 1055.227173,241.745865 1049.636353,241.975418 
	C1047.801758,242.050735 1045.960571,241.964127 1043.808472,241.255508 
	C1043.658691,240.208466 1043.221313,239.106689 1043.408447,238.123749 
	C1044.246460,233.721542 1045.262451,229.353180 1046.775879,224.576569 
	C1047.003662,223.021622 1047.231567,221.466675 1047.593628,218.995361 
	C1044.182007,218.995361 1041.109741,218.995239 1038.037476,218.995392 
	C1003.717590,218.997223 969.397644,218.999786 935.077759,219.000702 
	C911.087158,219.001358 887.096497,219.014648 863.105896,218.979431 
	C860.258972,218.975250 857.614990,218.977280 857.701660,222.401276 
	C857.531372,222.419006 857.361084,222.436737 856.716492,222.803238 
	C856.480103,223.483643 856.243713,224.164047 855.368225,225.204208 
	C854.220398,228.088943 853.072571,230.973679 851.636292,233.969086 
	C851.636292,233.969086 851.447021,234.213226 851.245544,234.236450 
	C851.245544,234.236450 851.209290,234.435959 850.686523,234.895508 
	C847.055054,242.114487 843.297119,249.273346 839.829285,256.570099 
	C836.641052,263.278564 833.765076,270.135468 830.736328,276.414276 
	C830.565430,276.419250 830.394531,276.424255 829.706787,276.887634 
	C829.147339,277.669678 828.477783,278.395538 828.045654,279.242554 
	C824.367615,286.452118 820.732666,293.683655 817.002319,301.652374 
	C814.295471,307.213867 811.670593,312.817139 808.862915,318.327271 
	C804.419922,327.046814 799.765259,335.659302 795.380371,344.407471 
	C793.354309,348.449677 791.754028,352.705353 789.367676,357.261627 
	C788.490601,359.480438 787.613525,361.699280 786.708923,363.417847 
	C786.542114,363.426971 786.375366,363.436066 785.708191,363.913605 
	C782.127991,371.042603 778.592102,378.194305 774.957153,385.295258 
	C769.330933,396.286072 763.517334,407.182861 758.027466,418.240814 
	C755.659363,423.010742 753.901428,428.083649 751.972290,433.004303 
	C751.972290,433.004303 751.957520,432.898376 751.333862,433.219055 
	C748.851440,438.128601 746.369080,443.038147 743.286804,448.340210 
	C742.474426,450.566711 741.662109,452.793243 740.966309,455.008148 
	C740.966309,455.008148 740.954529,454.891571 740.328552,455.209015 
	C738.417664,459.053253 736.506775,462.897491 734.548218,466.399445 
	C734.548218,466.399445 734.205933,466.446960 733.732727,466.931915 
	C732.411987,470.269348 731.091309,473.606750 729.763428,476.426880 
	C729.591003,476.429199 729.418518,476.431549 728.761230,476.913086 
	C727.426392,480.251740 726.091553,483.590424 724.731934,486.412842 
	C724.559937,486.421021 724.387878,486.429199 723.707886,486.893127 
	C722.058533,490.904724 720.409180,494.916290 718.694031,498.408569 
	C718.520935,498.430420 718.347839,498.452301 717.668579,498.915039 
	C715.115173,503.947906 712.459167,508.931976 710.036804,514.027161 
	C707.551941,519.254028 705.295532,524.589600 702.320312,530.204468 
	C700.831604,533.476868 699.342896,536.749329 697.972046,540.004578 
	C697.972046,540.004578 697.954712,539.886719 697.353455,540.172424 
	C696.872437,541.091309 696.391357,542.010193 695.452759,543.139282 
z"/>
<path fill="#00BF63" opacity="1.000000" stroke="none" 
	d="
M505.164490,591.009216 
	C504.442780,573.534790 503.749603,556.059143 502.973907,538.587158 
	C502.829010,535.323547 502.353333,532.074585 502.222900,527.990173 
	C501.965179,516.112122 501.514893,505.062775 501.012299,493.548737 
	C498.739563,450.528320 496.519165,407.972626 494.298767,365.416901 
	C493.767487,365.405060 493.236237,365.393250 492.704956,365.381439 
	C492.434692,366.582825 492.104553,367.774261 491.902924,368.987091 
	C486.496155,401.507843 482.112152,434.236664 475.529755,466.517303 
	C448.951569,596.859314 421.678070,727.059509 394.772736,857.335083 
	C393.908661,861.518860 392.364960,862.976257 387.950653,862.942627 
	C360.119141,862.730530 332.284882,862.782959 304.452637,862.937744 
	C302.260803,862.949890 300.076996,864.403320 297.889465,865.186951 
	C291.081665,865.129089 284.272888,865.121643 277.466522,864.990234 
	C274.467102,864.932312 271.299896,864.878479 271.228638,860.412598 
	C272.294006,859.347046 273.638702,858.666931 273.910553,857.688660 
	C274.794067,854.509094 275.431976,851.240906 275.887817,847.968323 
	C276.400604,844.286926 276.612854,840.563660 276.955811,836.858643 
	C278.305298,830.122559 279.576599,823.369751 281.019348,816.653687 
	C284.895508,798.609924 288.918243,780.597473 292.744507,762.543213 
	C296.573853,744.474487 300.241455,726.371399 303.953674,708.278015 
	C304.118591,707.474182 304.022797,706.616882 304.303345,705.479004 
	C305.249725,704.295166 306.356506,703.507263 306.570679,702.524780 
	C309.964996,686.953857 313.288300,671.366882 316.480988,655.753479 
	C316.786865,654.257690 316.115479,652.562134 315.897766,650.959290 
	C316.587738,647.930786 317.303375,644.907776 317.962952,641.872681 
	C320.114105,631.973572 322.250885,622.071350 324.382172,612.167908 
	C328.234253,594.268799 332.070435,576.366150 335.928162,558.468201 
	C339.510925,541.846130 343.206970,525.247681 346.673065,508.601379 
	C348.905792,497.878571 350.675842,487.059570 352.900696,476.334991 
	C355.816132,462.281250 359.074829,448.298798 362.001373,434.247223 
	C364.799652,420.811432 367.240570,407.300995 370.063873,393.870728 
	C372.515350,382.208923 375.281982,370.613373 378.283325,358.379639 
	C380.626190,349.835083 382.595062,341.899414 384.627960,333.705750 
	C382.687775,333.421234 381.881012,333.200287 381.074066,333.199524 
	C357.576904,333.176849 334.079285,333.248505 310.583038,333.098175 
	C306.828339,333.074188 306.376617,335.122253 305.779999,337.958374 
	C295.601868,386.341095 285.325226,434.703064 275.116028,483.079224 
	C248.819717,607.684143 222.514206,732.287170 196.384720,856.927124 
	C195.389328,861.675232 193.686218,862.985474 188.929260,862.952026 
	C157.101303,862.727905 125.270775,862.790466 93.441902,862.937744 
	C91.243309,862.947937 89.051361,864.395325 86.856323,865.174316 
	C84.678131,865.119934 82.500000,865.023010 80.321724,865.019409 
	C74.483719,865.009949 68.637558,865.232788 62.810459,864.987427 
	C58.924782,864.823914 59.723049,861.462524 60.124733,859.279785 
	C61.304737,852.867554 62.903675,846.532227 64.348602,840.169067 
	C64.635925,838.903809 64.967773,837.648621 65.802460,836.018555 
	C67.627846,830.443176 69.109383,825.274170 70.166245,820.019714 
	C70.827240,816.733398 70.848541,813.318359 71.156883,809.961121 
	C72.793983,801.615417 74.397568,793.262939 76.074867,784.925293 
	C80.041222,765.209229 83.983719,745.488037 88.065804,725.795837 
	C89.291901,719.880981 91.085373,714.085449 92.378708,708.182617 
	C96.292305,690.321228 100.159042,672.448853 103.908096,654.552307 
	C107.122215,639.209473 110.056572,623.808044 113.282883,608.467896 
	C117.077408,590.426025 121.087334,572.429626 124.935883,554.398926 
	C126.780151,545.758484 128.476974,537.086487 130.224716,528.425537 
	C134.170593,508.871674 138.054596,489.305176 142.081070,469.767944 
	C143.168076,464.493622 144.834320,459.339905 145.959412,454.072021 
	C149.373901,438.084778 152.681351,422.074463 155.977753,406.062286 
	C159.012131,391.322784 161.971573,376.567841 164.989563,361.824951 
	C165.182571,360.882111 165.595901,359.984344 166.317932,358.484619 
	C168.720551,349.974182 170.711990,342.044708 172.811584,333.684540 
	C170.453140,333.434326 169.172897,333.180420 167.892517,333.179779 
	C128.167618,333.159607 88.442642,333.141571 48.717953,333.236908 
	C46.876953,333.241302 45.038471,334.294617 43.198814,334.859436 
	C36.215553,334.914703 29.232233,335.018250 22.249050,335.009583 
	C16.899775,335.002960 16.017714,333.868622 17.188587,328.225800 
	C18.350891,322.624237 19.822678,317.087250 21.002565,311.489014 
	C23.726934,298.562561 26.224987,285.587219 29.060295,272.685669 
	C32.176666,258.505219 35.590691,244.390320 38.805325,230.231049 
	C39.130981,228.796631 38.977306,227.253387 39.280815,225.451813 
	C44.394703,217.767807 51.949371,220.036240 58.710892,220.033951 
	C229.159973,219.976089 399.609070,219.989700 570.058167,219.993118 
	C573.723633,219.993179 577.389709,220.070984 581.054321,220.020432 
	C584.356750,219.974869 585.795166,221.446686 585.985229,224.812149 
	C586.303467,230.446594 586.996033,236.059891 587.547241,242.170105 
	C597.016541,395.104584 606.469788,547.551086 615.922974,699.997559 
	C616.532104,700.086365 617.141174,700.175232 617.750305,700.264038 
	C620.829224,694.243774 623.991699,688.264404 626.965576,682.192688 
	C630.541443,674.891785 633.956909,667.512268 637.718689,659.995483 
	C639.590820,656.450806 641.186035,653.077454 642.781250,649.704102 
	C642.781311,649.704102 642.859192,649.877747 643.002563,649.712524 
	C643.473877,649.030396 643.801697,648.513367 644.344543,647.735779 
	C645.782898,644.124512 647.006226,640.773865 648.229553,637.423157 
	C648.401184,637.420227 648.572815,637.417358 648.996887,637.426697 
	C652.235107,630.782227 655.220825,624.125610 658.206543,617.468933 
	C658.378845,617.454346 658.551086,617.439819 658.985413,617.431396 
	C662.584351,610.099365 665.921204,602.761047 669.258118,595.422791 
	C669.258118,595.422791 669.266907,595.252686 669.439148,595.222656 
	C669.780212,595.133423 669.894348,595.016296 669.953857,594.841248 
	C674.826660,584.832458 679.655273,574.801819 684.591614,564.824524 
	C686.954346,560.048889 689.521240,555.374146 692.387329,550.180481 
	C693.850830,547.803833 694.922791,545.900452 696.248901,543.776855 
	C696.986877,542.333374 697.470764,541.110046 697.954712,539.886719 
	C697.954712,539.886719 697.972046,540.004578 698.185547,539.798340 
	C699.950806,536.769836 701.502502,533.947449 703.270508,530.854492 
	C708.122742,521.471985 712.813477,512.387207 717.335693,503.219360 
	C718.017944,501.836243 717.914612,500.065582 718.174683,498.474213 
	C718.347839,498.452301 718.520935,498.430420 718.969055,498.416748 
	C720.901306,494.429077 722.558533,490.433258 724.215759,486.437408 
	C724.387878,486.429199 724.559937,486.421021 724.990112,486.421753 
	C726.580872,483.098389 727.913452,479.766174 729.246094,476.433929 
	C729.418518,476.431549 729.591003,476.429199 730.009766,476.434265 
	C731.572693,473.110046 732.889282,469.778503 734.205933,466.446960 
	C734.205933,466.446960 734.548218,466.399445 734.817078,466.339386 
	C737.042114,462.483398 738.998352,458.687500 740.954529,454.891571 
	C740.954529,454.891571 740.966309,455.008148 741.180542,454.803833 
	C742.644653,452.424927 743.894531,450.250336 745.343872,447.799469 
	C747.681396,442.648254 749.819458,437.773315 751.957520,432.898376 
	C751.957520,432.898376 751.972290,433.004303 752.194946,432.799927 
	C753.287292,431.390686 754.340027,430.277924 754.999146,428.967163 
	C765.014954,409.048401 775.010376,389.119141 784.899597,369.137421 
	C785.739746,367.439880 785.790894,365.351837 786.208618,363.445190 
	C786.375366,363.436066 786.542114,363.426971 786.966736,363.440277 
	C788.136597,361.263214 789.048645,359.063721 789.960693,356.864258 
	C791.754028,352.705353 793.354309,348.449677 795.380371,344.407471 
	C799.765259,335.659302 804.419922,327.046814 808.862915,318.327271 
	C811.670593,312.817139 814.295471,307.213867 817.312012,301.338074 
	C819.347290,298.835236 821.546265,296.869843 822.703979,294.413696 
	C825.471558,288.541870 827.748596,282.438904 830.223633,276.429260 
	C830.394531,276.424255 830.565430,276.419250 830.991150,276.423889 
	C837.751648,263.736115 844.287659,251.054016 850.709473,238.314407 
	C851.262878,237.216568 851.060547,235.737778 851.209229,234.435959 
	C851.209290,234.435959 851.245544,234.236450 851.426270,234.202316 
	C851.607056,234.168182 851.924683,233.858398 851.924683,233.858398 
	C853.072571,230.973679 854.220398,228.088943 855.898071,224.843658 
	C856.682129,223.806885 856.936462,223.130692 857.190735,222.454483 
	C857.361084,222.436737 857.531372,222.419006 858.012451,222.412079 
	C861.078003,221.609238 863.831177,220.092178 866.587830,220.085663 
	C923.977600,219.950180 981.367859,220.034378 1038.757568,219.886429 
	C1042.881104,219.875793 1045.332153,220.912521 1046.214233,224.972595 
	C1045.262451,229.353180 1044.246460,233.721542 1043.408447,238.123749 
	C1043.221313,239.106689 1043.658691,240.208466 1043.596191,241.705536 
	C1042.328735,243.825531 1040.687378,245.370987 1040.302490,247.183273 
	C1020.798645,339.016388 1001.408386,430.873627 981.992004,522.725342 
	C958.444580,634.119324 934.848450,745.503174 911.454773,856.929443 
	C910.452332,861.704346 908.711365,862.988159 903.976074,862.949524 
	C875.817078,862.719604 847.654968,862.788452 819.494812,862.929321 
	C817.255737,862.940491 815.023254,864.257263 812.787720,864.967285 
	C804.931030,864.960693 797.070312,865.099670 789.219604,864.879578 
	C785.827393,864.784546 785.533142,862.020081 786.049805,859.430786 
	C787.392761,852.700256 788.887329,845.999451 790.366760,839.296753 
	C795.536987,815.871826 800.840149,792.475464 805.871887,769.020874 
	C809.713074,751.115601 813.168762,733.127930 816.890625,715.196533 
	C820.146973,699.508118 823.541382,683.848389 826.863770,668.173645 
	C830.552917,650.768005 834.257568,633.365540 837.903809,615.950928 
	C841.587708,598.356140 845.194153,580.745239 848.860779,563.146790 
	C852.218933,547.029480 855.605408,530.918152 859.010498,514.810669 
	C859.175598,514.029541 859.639648,513.311584 860.131226,511.857452 
	C861.526917,507.069916 862.939636,503.034363 863.956604,498.901398 
	C874.610229,455.603210 885.205139,412.290588 895.782288,368.973633 
	C896.066101,367.811523 895.967346,366.556000 896.046936,365.343994 
	C893.695190,367.114563 892.346375,369.262787 891.213196,371.519257 
	C809.782959,533.667847 728.357544,695.818909 647.034241,858.021179 
	C645.207336,861.665100 643.115967,862.952576 639.046387,862.929260 
	C608.726074,862.755249 578.404053,862.784973 548.083496,862.932007 
	C545.683960,862.943604 543.291016,864.322754 540.895020,865.066406 
	C535.895508,865.047729 530.894775,865.093872 525.896912,864.992920 
	C520.508728,864.884216 519.256470,863.411377 519.067566,858.213379 
	C518.442139,840.999756 517.772461,823.787048 516.967346,806.581055 
	C516.441895,795.352234 515.582825,784.139465 514.997986,772.912964 
	C514.257996,758.707825 513.727966,744.491577 512.955139,730.288330 
	C512.048218,713.620361 510.957520,696.962463 509.988037,680.297791 
	C509.593964,673.523499 509.332611,666.741638 508.969269,659.965515 
	C508.340912,648.247559 507.680115,636.531311 507.229187,623.982727 
	C507.231689,613.417419 507.084778,603.682312 506.773346,593.952454 
	C506.741425,592.955200 505.724396,591.989563 505.164490,591.009216 
z"/>
<path fill="#99E5C1" opacity="1.000000" stroke="none" 
	d="
M812.761230,865.367310 
	C815.023254,864.257263 817.255737,862.940491 819.494812,862.929321 
	C847.654968,862.788452 875.817078,862.719604 903.976074,862.949524 
	C908.711365,862.988159 910.452332,861.704346 911.454773,856.929443 
	C934.848450,745.503174 958.444580,634.119324 981.992004,522.725342 
	C1001.408386,430.873627 1020.798645,339.016388 1040.302490,247.183273 
	C1040.687378,245.370987 1042.328735,243.825531 1043.753052,242.053574 
	C1045.960571,241.964127 1047.801758,242.050735 1049.636353,241.975418 
	C1055.227173,241.745865 1060.818726,241.251846 1066.401855,241.345520 
	C1067.614136,241.365875 1069.932007,243.570435 1069.799927,244.490128 
	C1069.000244,250.054901 1067.556396,255.522949 1066.478882,261.052765 
	C1063.943237,274.065277 1061.572632,287.110352 1058.970703,300.109344 
	C1057.805298,305.931854 1056.183350,311.661469 1054.875732,317.457397 
	C1050.897583,335.089325 1046.886719,352.714539 1043.050293,370.377472 
	C1039.377441,387.286804 1035.798096,404.218079 1032.376953,421.179901 
	C1028.468262,440.558960 1024.849854,459.996429 1020.953369,479.378021 
	C1019.781311,485.208282 1017.917542,490.897858 1016.695557,496.720093 
	C1014.343201,507.928619 1012.342773,519.211243 1009.973755,530.416077 
	C1007.337952,542.883179 1004.325012,555.270874 1001.713562,567.742798 
	C998.997009,580.716919 996.636169,593.765137 993.974854,606.751282 
	C992.747192,612.741821 991.068481,618.638855 989.779663,624.618286 
	C986.794434,638.468140 983.907349,652.339233 981.008606,666.207642 
	C978.632690,677.575256 976.407166,688.975464 973.919006,700.318237 
	C970.043457,717.985535 965.893372,735.592957 962.061401,753.269409 
	C958.270996,770.754456 954.770813,788.302063 951.071228,805.807007 
	C945.760742,830.934387 940.031189,855.981873 935.321167,881.220398 
	C934.324341,886.562195 932.632568,887.088928 928.232239,887.074402 
	C890.406494,886.949646 852.580200,887.004272 814.754028,886.997742 
	C808.471619,886.996643 808.575317,886.987427 809.912598,880.930359 
	C811.020325,875.912964 811.806274,870.824402 812.761230,865.367310 
z"/>
<path fill="#98E5C1" opacity="1.000000" stroke="none" 
	d="
M86.932777,865.428589 
	C89.051361,864.395325 91.243309,862.947937 93.441902,862.937744 
	C125.270775,862.790466 157.101303,862.727905 188.929260,862.952026 
	C193.686218,862.985474 195.389328,861.675232 196.384720,856.927124 
	C222.514206,732.287170 248.819717,607.684143 275.116028,483.079224 
	C285.325226,434.703064 295.601868,386.341095 305.779999,337.958374 
	C306.376617,335.122253 306.828339,333.074188 310.583038,333.098175 
	C334.079285,333.248505 357.576904,333.176849 381.074066,333.199524 
	C381.881012,333.200287 382.687775,333.421234 384.627960,333.705750 
	C382.595062,341.899414 380.626190,349.835083 378.356873,358.003784 
	C376.355011,357.820404 374.656830,357.059692 372.951599,357.043457 
	C361.787842,356.937103 350.622009,356.932770 339.458282,357.040283 
	C337.042999,357.063568 334.567413,357.452606 332.253571,358.130493 
	C331.320404,358.403900 330.300262,359.810852 330.077423,360.862488 
	C326.959961,375.575348 323.959656,390.313110 320.959839,405.050720 
	C318.290497,418.164642 315.782318,431.312744 312.971954,444.396179 
	C310.261078,457.016479 307.116943,469.543793 304.417572,482.166382 
	C301.788513,494.460114 299.590485,506.845673 297.004974,519.149231 
	C294.019867,533.354370 290.707886,547.490967 287.744720,561.700500 
	C285.342987,573.217590 283.350677,584.819763 280.974701,596.342590 
	C279.678864,602.627075 277.767426,608.784607 276.473358,615.069336 
	C272.888794,632.477966 269.534851,649.934021 265.981995,667.349304 
	C264.403931,675.084351 262.488098,682.750000 260.865540,690.476562 
	C258.516052,701.664490 256.371338,712.895691 253.983002,724.075012 
	C252.842209,729.414917 251.164429,734.640686 250.039444,739.983276 
	C247.273453,753.119019 244.745575,766.304688 242.011139,779.447266 
	C239.416489,791.918091 236.597733,804.342407 234.030121,816.818604 
	C231.265594,830.251648 228.705078,843.726624 226.003967,857.172852 
	C224.388168,865.216309 222.529755,873.213745 221.061966,881.283081 
	C220.293304,885.508850 218.577362,887.153992 213.923752,887.130737 
	C172.098572,886.921692 130.271942,887.005554 88.445732,886.998169 
	C81.896614,886.997009 81.662285,886.618774 83.386696,880.132324 
	C84.662346,875.333923 85.806503,870.500610 86.932777,865.428589 
z"/>
<path fill="#98E5C1" opacity="1.000000" stroke="none" 
	d="
M540.962585,865.501404 
	C543.291016,864.322754 545.683960,862.943604 548.083496,862.932007 
	C578.404053,862.784973 608.726074,862.755249 639.046387,862.929260 
	C643.115967,862.952576 645.207336,861.665100 647.034241,858.021179 
	C728.357544,695.818909 809.782959,533.667847 891.213196,371.519257 
	C892.346375,369.262787 893.695190,367.114563 896.046936,365.343994 
	C895.967346,366.556000 896.066101,367.811523 895.782288,368.973633 
	C885.205139,412.290588 874.610229,455.603210 863.956604,498.901398 
	C862.939636,503.034363 861.526917,507.069916 860.234253,511.458008 
	C860.094238,510.286285 860.017883,508.807251 859.866943,505.880951 
	C855.309204,515.108704 851.401794,523.143555 847.386292,531.124023 
	C839.262451,547.269714 831.028931,563.360413 822.941284,579.524109 
	C818.189026,589.021851 813.738953,598.671204 808.957153,608.153625 
	C802.743774,620.474792 796.339844,632.699890 790.010315,644.962402 
	C784.479614,655.677307 778.790771,666.313477 773.433777,677.114380 
	C763.510376,697.122192 753.914429,717.292847 743.928284,737.268799 
	C734.218872,756.690918 724.084656,775.900391 714.340332,795.305420 
	C707.627014,808.674377 701.365051,822.269409 694.711914,835.669373 
	C686.576172,852.055298 678.307556,868.376831 669.868225,884.607605 
	C669.205505,885.882202 666.757263,886.900391 665.135193,886.905457 
	C625.479797,887.030823 585.823914,886.975769 546.168335,887.051575 
	C542.882996,887.057861 541.911865,885.911072 541.907410,882.671265 
	C541.899780,877.092590 541.351562,871.514709 540.962585,865.501404 
z"/>
<path fill="#98E5C1" opacity="1.000000" stroke="none" 
	d="
M297.957275,865.543213 
	C300.076996,864.403320 302.260803,862.949890 304.452637,862.937744 
	C332.284882,862.782959 360.119141,862.730530 387.950653,862.942627 
	C392.364960,862.976257 393.908661,861.518860 394.772736,857.335083 
	C421.678070,727.059509 448.951569,596.859314 475.529755,466.517303 
	C482.112152,434.236664 486.496155,401.507843 491.902924,368.987091 
	C492.104553,367.774261 492.434692,366.582825 492.704956,365.381439 
	C493.236237,365.393250 493.767487,365.405060 494.298767,365.416901 
	C496.519165,407.972626 498.739563,450.528320 500.833679,493.838409 
	C500.484589,495.468842 500.261780,496.344940 500.038940,497.221008 
	C499.018799,500.422485 497.735840,503.566681 497.023407,506.835266 
	C493.718292,521.999146 490.489105,537.180786 487.393188,552.388733 
	C484.814301,565.057007 482.603638,577.801025 479.963226,590.455811 
	C477.263550,603.394653 474.066101,616.230164 471.408783,629.177063 
	C469.035522,640.739929 467.193756,652.410950 464.935059,663.998718 
	C463.824005,669.698853 462.173828,675.292114 460.988373,680.979797 
	C458.255829,694.090088 455.775330,707.253601 452.972321,720.348328 
	C450.276215,732.943604 447.123474,745.442261 444.504578,758.052551 
	C442.099426,769.633606 440.224304,781.323914 437.945587,792.932617 
	C436.794006,798.799438 435.214020,804.580811 433.918274,810.420898 
	C429.933716,828.380066 425.916168,846.332581 422.078033,864.323181 
	C420.793701,870.343384 420.088379,876.484924 418.963806,882.542297 
	C418.451508,885.302002 417.210602,887.088074 413.716797,887.077393 
	C375.237610,886.959229 336.757935,886.993958 298.278412,887.017456 
	C294.609589,887.019714 293.281769,886.335754 294.764465,882.046936 
	C296.542603,876.903442 296.997284,871.302368 297.957275,865.543213 
z"/>
<path fill="#98E5C1" opacity="1.000000" stroke="none" 
	d="
M637.441895,660.166809 
	C633.956909,667.512268 630.541443,674.891785 626.965576,682.192688 
	C623.991699,688.264404 620.829224,694.243774 617.750305,700.264038 
	C617.141174,700.175232 616.532104,700.086365 615.922974,699.997559 
	C606.469788,547.551086 597.016541,395.104584 587.955078,242.306305 
	C588.915955,241.937027 589.485107,241.919571 590.054321,241.902115 
	C593.375610,241.917557 596.696899,241.931519 600.018188,241.949707 
	C600.683899,241.953354 601.349548,241.984451 602.015198,241.983826 
	C610.992249,241.975220 610.669434,241.988831 611.074036,251.036484 
	C611.839172,268.148712 612.971069,285.245331 614.038330,302.342926 
	C614.600830,311.353607 615.381226,320.350433 616.004822,329.357574 
	C617.030151,344.166534 618.017334,358.978149 619.000916,373.789948 
	C619.361023,379.212097 619.733582,384.634796 619.981628,390.062714 
	C620.689026,405.542236 621.178467,421.033417 622.052673,436.503113 
	C622.831421,450.282532 624.106812,464.033234 624.982605,477.808075 
	C625.786560,490.451874 626.166382,503.124023 627.065308,515.760071 
	C628.193970,531.625488 629.661194,547.466919 630.981873,563.318665 
	C631.322388,567.405029 631.822571,571.485657 631.970642,575.579041 
	C632.395447,587.321045 632.463257,599.079224 633.067566,610.810608 
	C633.887817,626.733276 635.075684,642.637085 636.606750,659.072449 
	C637.219055,659.786194 637.330505,659.976501 637.441895,660.166809 
z"/>
<path fill="#97E4C0" opacity="1.000000" stroke="none" 
	d="
M43.530128,335.075562 
	C45.038471,334.294617 46.876953,333.241302 48.717953,333.236908 
	C88.442642,333.141571 128.167618,333.159607 167.892517,333.179779 
	C169.172897,333.180420 170.453140,333.434326 172.811584,333.684540 
	C170.711990,342.044708 168.720551,349.974182 166.414490,358.118042 
	C164.412552,357.885986 162.725952,357.053101 161.037781,357.049896 
	C123.766617,356.979034 86.495285,356.999878 49.223984,357.003967 
	C48.392078,357.004059 47.549046,356.925537 46.729992,357.030426 
	C38.912773,358.031342 39.004250,358.061890 40.922943,349.979126 
	C42.075367,345.124390 42.893223,340.190216 43.530128,335.075562 
z"/>
<path fill="#1DC373" opacity="1.000000" stroke="none" 
	d="
M589.877930,241.527191 
	C589.485107,241.919571 588.915955,241.937027 587.938904,241.818298 
	C586.996033,236.059891 586.303467,230.446594 585.985229,224.812149 
	C585.795166,221.446686 584.356750,219.974869 581.054321,220.020432 
	C577.389709,220.070984 573.723633,219.993179 570.058167,219.993118 
	C399.609070,219.989700 229.159973,219.976089 58.710892,220.033951 
	C51.949371,220.036240 44.394703,217.767807 39.340782,225.017822 
	C39.438232,219.553345 41.841087,217.838120 47.516171,217.845551 
	C195.222214,218.039276 342.928528,217.998245 490.634827,218.006912 
	C502.623688,218.007629 514.613708,217.983353 526.601074,218.132767 
	C543.041870,218.337677 559.480652,218.699219 575.920288,218.989777 
	C579.413879,219.051529 583.833191,217.844604 586.117920,219.533203 
	C588.055115,220.964966 587.582825,225.725357 588.073425,229.028137 
	C588.672485,233.061142 589.163635,237.110184 589.877930,241.527191 
z"/>
<path fill="#22C773" opacity="1.000000" stroke="none" 
	d="
M1046.495117,224.774582 
	C1045.332153,220.912521 1042.881104,219.875793 1038.757568,219.886429 
	C981.367859,220.034378 923.977600,219.950180 866.587830,220.085663 
	C863.831177,220.092178 861.078003,221.609238 858.039124,222.667511 
	C857.614990,218.977280 860.258972,218.975250 863.105896,218.979431 
	C887.096497,219.014648 911.087158,219.001358 935.077759,219.000702 
	C969.397644,218.999786 1003.717590,218.997223 1038.037476,218.995392 
	C1041.109741,218.995239 1044.182007,218.995361 1047.593628,218.995361 
	C1047.231567,221.466675 1047.003662,223.021622 1046.495117,224.774582 
z"/>
<path fill="#18C96E" opacity="1.000000" stroke="none" 
	d="
M785.958374,363.679382 
	C785.790894,365.351837 785.739746,367.439880 784.899597,369.137421 
	C775.010376,389.119141 765.014954,409.048401 754.999146,428.967163 
	C754.340027,430.277924 753.287292,431.390686 752.141968,432.807251 
	C753.901428,428.083649 755.659363,423.010742 758.027466,418.240814 
	C763.517334,407.182861 769.330933,396.286072 774.957153,385.295258 
	C778.592102,378.194305 782.127991,371.042603 785.958374,363.679382 
z"/>
<path fill="#13C76B" opacity="1.000000" stroke="none" 
	d="
M315.571564,651.195923 
	C316.115479,652.562134 316.786865,654.257690 316.480988,655.753479 
	C313.288300,671.366882 309.964996,686.953857 306.570679,702.524780 
	C306.356506,703.507263 305.249725,704.295166 304.390320,705.055908 
	C307.896790,687.103088 311.571075,669.267822 315.571564,651.195923 
z"/>
<path fill="#14C66E" opacity="1.000000" stroke="none" 
	d="
M850.947876,234.665741 
	C851.060547,235.737778 851.262878,237.216568 850.709473,238.314407 
	C844.287659,251.054016 837.751648,263.736115 830.998779,276.680237 
	C833.765076,270.135468 836.641052,263.278564 839.829285,256.570099 
	C843.297119,249.273346 847.055054,242.114487 850.947876,234.665741 
z"/>
<path fill="#17C471" opacity="1.000000" stroke="none" 
	d="
M717.921631,498.694641 
	C717.914612,500.065582 718.017944,501.836243 717.335693,503.219360 
	C712.813477,512.387207 708.122742,521.471985 703.240845,530.542053 
	C702.976257,530.292664 702.957703,530.085144 702.939148,529.877563 
	C705.295532,524.589600 707.551941,519.254028 710.036804,514.027161 
	C712.459167,508.931976 715.115173,503.947906 717.921631,498.694641 
z"/>
<path fill="#20C777" opacity="1.000000" stroke="none" 
	d="
M500.017914,497.660156 
	C500.261780,496.344940 500.484589,495.468842 500.885986,494.303101 
	C501.514893,505.062775 501.965179,516.112122 502.295776,527.545044 
	C501.449646,517.985535 500.723236,508.042419 500.017914,497.660156 
z"/>
<path fill="#14C66E" opacity="1.000000" stroke="none" 
	d="
M829.965210,276.658447 
	C827.748596,282.438904 825.471558,288.541870 822.703979,294.413696 
	C821.546265,296.869843 819.347290,298.835236 817.353271,300.966187 
	C820.732666,293.683655 824.367615,286.452118 828.045654,279.242554 
	C828.477783,278.395538 829.147339,277.669678 829.965210,276.658447 
z"/>
<path fill="#18C572" opacity="1.000000" stroke="none" 
	d="
M505.103577,591.459351 
	C505.724396,591.989563 506.741425,592.955200 506.773346,593.952454 
	C507.084778,603.682312 507.231689,613.417419 507.299072,623.532593 
	C506.462738,613.245972 505.752747,602.577698 505.103577,591.459351 
z"/>
<path fill="#17C66C" opacity="1.000000" stroke="none" 
	d="
M70.981812,810.322632 
	C70.848541,813.318359 70.827240,816.733398 70.166245,820.019714 
	C69.109383,825.274170 67.627846,830.443176 66.116119,835.789978 
	C67.539856,827.515808 69.173302,819.099915 70.981812,810.322632 
z"/>
<path fill="#17C770" opacity="1.000000" stroke="none" 
	d="
M276.616882,837.102600 
	C276.612854,840.563660 276.400604,844.286926 275.887817,847.968323 
	C275.431976,851.240906 274.794067,854.509094 273.910553,857.688660 
	C273.638702,858.666931 272.294006,859.347046 271.252014,860.008911 
	C272.801636,852.351624 274.539795,844.849121 276.616882,837.102600 
z"/>
<path fill="#17C770" opacity="1.000000" stroke="none" 
	d="
M669.009155,595.665283 
	C665.921204,602.761047 662.584351,610.099365 659.007446,617.689819 
	C662.098267,610.597290 665.429199,603.252563 669.009155,595.665283 
z"/>
<path fill="#17C770" opacity="1.000000" stroke="none" 
	d="
M657.950012,617.687134 
	C655.220825,624.125610 652.235107,630.782227 649.001221,637.684143 
	C651.733215,631.254700 654.713318,624.580017 657.950012,617.687134 
z"/>
<path fill="#18C96E" opacity="1.000000" stroke="none" 
	d="
M751.645691,433.058716 
	C749.819458,437.773315 747.681396,442.648254 745.028931,447.766235 
	C744.305176,447.988708 744.095886,447.968201 743.886658,447.947693 
	C746.369080,443.038147 748.851440,438.128601 751.645691,433.058716 
z"/>
<path fill="#37D18A" opacity="1.000000" stroke="none" 
	d="
M637.718750,659.995483 
	C637.330505,659.976501 637.219055,659.786194 636.979370,659.291016 
	C638.580627,655.900269 640.310120,652.814453 642.410400,649.716370 
	C641.186035,653.077454 639.590820,656.450806 637.718750,659.995483 
z"/>
<path fill="#17C471" opacity="1.000000" stroke="none" 
	d="
M723.961792,486.665283 
	C722.558533,490.433258 720.901306,494.429077 719.001953,498.676392 
	C720.409180,494.916290 722.058533,490.904724 723.961792,486.665283 
z"/>
<path fill="#17C471" opacity="1.000000" stroke="none" 
	d="
M740.641541,455.050293 
	C738.998352,458.687500 737.042114,462.483398 734.840942,466.510559 
	C736.506775,462.897491 738.417664,459.053253 740.641541,455.050293 
z"/>
<path fill="#17C76E" opacity="1.000000" stroke="none" 
	d="
M702.629761,530.041016 
	C702.957703,530.085144 702.976257,530.292664 703.024475,530.812622 
	C701.502502,533.947449 699.950806,536.769836 698.126648,539.806946 
	C699.342896,536.749329 700.831604,533.476868 702.629761,530.041016 
z"/>
<path fill="#17C770" opacity="1.000000" stroke="none" 
	d="
M647.975586,637.652771 
	C647.006226,640.773865 645.782898,644.124512 644.103455,647.730103 
	C643.647339,647.985046 643.167480,647.965515 643.167480,647.965515 
	C644.685608,644.604492 646.203613,641.243469 647.975586,637.652771 
z"/>
<path fill="#17C471" opacity="1.000000" stroke="none" 
	d="
M729.003662,476.673523 
	C727.913452,479.766174 726.580872,483.098389 725.002441,486.679871 
	C726.091553,483.590424 727.426392,480.251740 729.003662,476.673523 
z"/>
<path fill="#17C471" opacity="1.000000" stroke="none" 
	d="
M733.969360,466.689453 
	C732.889282,469.778503 731.572693,473.110046 730.013367,476.692902 
	C731.091309,473.606750 732.411987,470.269348 733.969360,466.689453 
z"/>
<path fill="#17C471" opacity="1.000000" stroke="none" 
	d="
M743.586731,448.143951 
	C744.095886,447.968201 744.305176,447.988708 744.829468,448.042480 
	C743.894531,450.250336 742.644653,452.424927 741.122253,454.809631 
	C741.662109,452.793243 742.474426,450.566711 743.586731,448.143951 
z"/>
<path fill="#17C76E" opacity="1.000000" stroke="none" 
	d="
M695.994751,543.997009 
	C694.922791,545.900452 693.850830,547.803833 692.468201,549.822388 
	C693.059265,548.177124 693.961121,546.416748 695.229980,544.341614 
	C695.597046,544.026855 696.004150,544.003540 696.002075,544.001770 
	C696.000000,544.000000 695.994690,543.997009 695.994751,543.997009 
z"/>
<path fill="#18C96E" opacity="1.000000" stroke="none" 
	d="
M789.664185,357.062927 
	C789.048645,359.063721 788.136597,361.263214 786.980469,363.690399 
	C787.613525,361.699280 788.490601,359.480438 789.664185,357.062927 
z"/>
<path fill="#17C76E" opacity="1.000000" stroke="none" 
	d="
M697.654053,540.029541 
	C697.470764,541.110046 696.986877,542.333374 696.248840,543.776855 
	C695.994690,543.997009 696.000000,544.000000 695.980469,543.732971 
	C695.944031,543.286987 695.927185,543.108032 695.910339,542.929077 
	C696.391357,542.010193 696.872437,541.091309 697.654053,540.029541 
z"/>
<path fill="#22C773" opacity="1.000000" stroke="none" 
	d="
M856.953613,222.628860 
	C856.936462,223.130692 856.682129,223.806885 856.217529,224.663757 
	C856.243713,224.164047 856.480103,223.483643 856.953613,222.628860 
z"/>
<path fill="#37D18A" opacity="1.000000" stroke="none" 
	d="
M643.024902,648.308228 
	C643.167480,647.965515 643.647339,647.985046 643.888428,647.990723 
	C643.801697,648.513367 643.473877,649.030396 642.915771,649.751404 
	C642.751099,649.520569 642.816711,649.085754 643.024902,648.308228 
z"/>
<path fill="#17C770" opacity="1.000000" stroke="none" 
	d="
M669.796875,594.911987 
	C669.894348,595.016296 669.780212,595.133423 669.524170,595.226685 
	C669.437012,595.260864 669.639954,594.982666 669.796875,594.911987 
z"/>
<path fill="#00BF63" opacity="1.000000" stroke="none" 
	d="
M695.681519,543.034180 
	C695.927185,543.108032 695.944031,543.286987 695.982544,543.734741 
	C696.004150,544.003540 695.597046,544.026855 695.393311,544.037354 
	C695.277283,543.744995 695.365051,543.442139 695.681519,543.034180 
z"/>
<path fill="#14C66E" opacity="1.000000" stroke="none" 
	d="
M851.780518,233.913742 
	C851.924683,233.858398 851.607056,234.168182 851.527039,234.190704 
	C851.447021,234.213226 851.636292,233.969086 851.780518,233.913742 
z"/>
</svg>